<svg fill="none" height="18" viewBox="0 0 14 18" width="14" xmlns="http://www.w3.org/2000/svg"><path d="m13.5545 6.1362c-.0997.081-1.8609 1.1196-1.8609 3.429 0 2.6712 2.241 3.6162 2.3081 3.6396-.0103.0576-.356 1.2942-1.1816 2.5542-.7361 1.1088-1.5049 2.2158-2.6744 2.2158-1.16953 0-1.47052-.711-2.82064-.711-1.31572 0-1.78354.7344-2.85332.7344-1.06977 0-1.81621-1.026-2.67444-2.286-.994106-1.4796-1.7973-3.7782-1.7973-5.9598 0-3.4992 2.17396-5.355 4.31351-5.355 1.13686 0 2.08452.7812 2.79828.7812.67936 0 1.73882-.828 3.03221-.828.4902 0 2.2513.0468 3.4105 1.7856zm-4.02453-3.267c.53493-.6642.91323-1.5858.91323-2.5074 0-.1278-.0103-.2574-.0326-.3618-.87031.0342-1.90569.6066-2.53001 1.3644-.49017.5832-.94767 1.5048-.94767 2.439 0 .1404.02236.2808.03268.3258.05504.0108.14447.0234.23391.0234.78083 0 1.7629-.5472 2.33046-1.2834z" fill="#fff"/></svg>