<svg fill="none" height="12" viewBox="0 0 11 12" width="11" xmlns="http://www.w3.org/2000/svg"><path d="m9.20081 2.38564h-.8675c-.093-.65259-.42993-1.25204-.94972-1.689698-.51978-.437659-1.18802-.6845577-1.88359-.695942-.69557.0113843-1.36381.258283-1.88359.695942-.51979.437658-.85672 1.037108-.94972 1.689698h-.86708c-.47707.0003-.934522.17978-1.271927.49904-.337405.31925-.52718765.7522-.527683 1.20378v6.20834c.00042749.4515.190081.8844.527342 1.2038.337261.3193.794578.4989 1.271588.4994h7.40163c.4771-.0004.93454-.1799 1.27194-.4993.3373-.3193.5271-.7523.5275-1.2039v-6.20834c-.0005-.45151-.1902-.88439-.5275-1.20364-.3373-.31924-.79469-.49877-1.27169-.49918zm-3.70081-1.50084c.44834.009225.87993.163 1.22342.4359.34348.2729.5783.64859.66562 1.06494h-3.77808c.08732-.41635.32214-.79204.66562-1.06494.34349-.2729.77508-.426675 1.22342-.4359zm4.5649 9.412c-.0002.2169-.09135.4249-.25335.5783s-.38166.2398-.61082.2401h-7.40154c-.22915-.0004-.44879-.0867-.61077-.2401-.16199-.1535-.253088-.3614-.253335-.5783v-6.20834c.00027-.21687.091405-.42479.253415-.57814s.38166-.23962.61077-.23988h7.40163c.22908.0003.44869.08659.61066.23993.16197.15335.25304.36124.25334.57809z" fill="#fff"/></svg>