<svg fill="none" height="11" viewBox="0 0 7 11" width="7" xmlns="http://www.w3.org/2000/svg"><path d="m.768979 11c-.211896 0-.393033-.0735-.543412-.2204-.1503779-.147-.225567-.3264-.225567-.5383s.0786068-.39648.23582-.55369l4.14224-4.13198-4.14224-4.13199c-.1572132-.15721-.23582-.34177-.23582-.553663 0-.211897.0751891-.391325.225567-.538285.150379-.146961.331516-.220441.543412-.220441.198226 0 .375941.071771.533161.215314l4.67539 4.654885c.16405.15038.24608.34177.24608.57418 0 .21873-.08203.41012-.24608.57417l-4.67539 4.6549c-.14354.1435-.321264.2153-.533161.2153z" fill="#2997ff"/></svg>