<svg fill="none" height="12" viewBox="0 0 12 12" width="12" xmlns="http://www.w3.org/2000/svg"><path d="m11.8063 10.8713-3.29945-3.29926c.59764-.79199.95657-1.77409.95657-2.84058 0-2.6087-2.12202-4.73146-4.73171-4.73146-2.60883 0-4.73171 2.12276-4.73171 4.73146 0 2.60955 2.12288 4.73146 4.73171 4.73146 1.06655 0 2.0487-.35891 2.84073-.95653l3.29936 3.29921c.1288.1288.2984.1944.4673.1944.1688 0 .3376-.0648.4672-.1944.2583-.2583.2583-.676 0-.9343zm-10.868484-6.13984c0-2.09207 1.702564-3.793693 3.793894-3.793693 2.09218 0 3.79389 1.702473 3.79389 3.793693s-1.70171 3.79369-3.79389 3.79369-3.793894-1.70162-3.793894-3.79369z" fill="#fff"/></svg>