<svg fill="none" height="20" viewBox="0 0 20 20" width="20" xmlns="http://www.w3.org/2000/svg"><path d="m10 20c-.9085 0-1.78595-.1193-2.63235-.3578-.84641-.2386-1.64216-.5785-2.38726-1.0197-.7451-.4411-1.42157-.9656-2.02941-1.5735-.60784-.6078-1.13235-1.2843-1.57353-2.0294-.441175-.7451-.781045-1.5408-1.019607-2.3872-.238562-.8465-.357843-1.7239-.357843-2.6324 0-.91503.119281-1.79412.357843-2.63726.238562-.84313.576798-1.63725 1.014707-2.38235.43791-.7451.96078-1.42157 1.56863-2.02941.60784-.60784 1.28431-1.13235 2.02941-1.57353.7451-.441176 1.54085-.781045 2.38725-1.019609.84641-.238561 1.72386-.357841 2.63236-.357841.915 0 1.7957.11928 2.6422.357841.8464.238564 1.6405.578433 2.3823 1.019609.7418.44118 1.4183.96569 2.0294 1.57353s1.1373 1.28431 1.5784 2.02941c.4412.7451.7811 1.53922 1.0197 2.38235.2385.84314.3578 1.72223.3578 2.63726 0 .9085-.1193 1.7859-.3578 2.6324-.2386.8464-.5785 1.6421-1.0197 2.3872-.4411.7451-.9656 1.4216-1.5735 2.0294-.6078.6079-1.2843 1.1324-2.0294 1.5735-.7451.4412-1.5392.7811-2.3823 1.0197-.8432.2385-1.7223.3578-2.6373.3578zm0-1.6667c.9281 0 1.8088-.1389 2.6422-.4166.8333-.2778 1.5964-.6716 2.2892-1.1814s1.2941-1.1111 1.8039-1.8039.9036-1.4559 1.1814-2.2892c.2777-.8334.4166-1.7141.4166-2.6422 0-.92811-.1405-1.80882-.4215-2.64216-.2811-.83333-.6765-1.5964-1.1863-2.28921s-1.1111-1.29412-1.8039-1.80392c-.6928-.50981-1.4559-.9036-2.2892-1.18138-.8334-.27777-1.7141-.41666-2.6422-.41666-.92811 0-1.80719.13889-2.63726.41666-.83006.27778-1.5915.67157-2.28431 1.18138-.69281.5098-1.29249 1.11111-1.79902 1.80392-.50654.69281-.89869 1.45588-1.17647 2.28921-.27778.83334-.41667 1.71405-.41667 2.64216 0 .9281.13889 1.8088.41667 2.6422.27778.8333.66993 1.5964 1.17647 2.2892.50653.6928 1.10621 1.2941 1.79902 1.8039s1.45588.9036 2.28921 1.1814c.83334.2777 1.71406.4166 2.64216.4166zm-1.72549-4.7255c-.14379.085-.28595.1226-.42647.1128s-.25817-.0605-.35294-.152-.14216-.2091-.14216-.3529v-6.42158c0-.15033.04902-.26798.14706-.35294.09804-.08497.21895-.13236.36275-.14216.14379-.0098.28104.02451.41176.10294l5.25489 3.10784c.1242.0719.2075.17157.25.29902s.0441.25488.0049.38238c-.0392.1274-.1242.2304-.2549.3088z" fill="#2997ff"/></svg>